<?xml version="1.0" ?><svg fill="none" height="1080" viewBox="0 0 1080 1080" width="1080" xmlns="http://www.w3.org/2000/svg"><rect height="760" rx="380" stroke="url(#paint0_linear)" stroke-width="27" width="760" x="157.5" y="159.5"/><path d="M314.542 391.159C349.386 375.937 392.903 366.512 441.699 364.32C490.418 362.131 542.318 367.251 592.939 379.348C643.569 391.448 691.013 410.073 731.298 433.445C771.673 456.87 802.966 483.959 823.397 511.844" stroke="url(#paint1_radial)" stroke-linecap="round" stroke-linejoin="round" stroke-width="50"/><path d="M338.283 522.763C365.777 510.752 400.322 503.233 439.275 501.483C478.149 499.737 519.618 503.821 560.093 513.494C600.577 523.169 638.452 538.049 670.546 556.669C702.73 575.341 727.447 596.809 743.466 618.672" stroke="url(#paint2_radial)" stroke-linecap="round" stroke-linejoin="round" stroke-width="50"/><path d="M371.208 665.985C390.284 657.651 414.555 652.315 442.233 651.072C469.834 649.832 499.357 652.732 528.21 659.627C557.073 666.525 583.99 677.116 606.703 690.293C629.506 703.523 646.692 718.552 657.658 733.519" stroke="url(#paint3_radial)" stroke-linecap="round" stroke-linejoin="round" stroke-width="50"/><defs><linearGradient gradientUnits="userSpaceOnUse" id="paint0_linear" x1="742.5" x2="344.5" y1="75" y2="933"><stop stop-color="#1C6433"/><stop offset="1" stop-color="#1ED760"/></linearGradient><radialGradient cx="0" cy="0" gradientTransform="translate(840.399 512.139) rotate(-168.621) scale(552.655 974.977)" gradientUnits="userSpaceOnUse" id="paint1_radial" r="1"><stop stop-color="#1C763A"/><stop offset="1" stop-color="#1DA84E"/></radialGradient><radialGradient cx="0" cy="0" gradientTransform="translate(761.076 616.069) rotate(-168.621) scale(446.362 787.46)" gradientUnits="userSpaceOnUse" id="paint2_radial" r="1"><stop stop-color="#1D9A48"/><stop offset="1" stop-color="#1EBE56"/></radialGradient><radialGradient cx="0" cy="0" gradientTransform="translate(675.965 727.596) rotate(-168.621) scale(324.627 572.698)" gradientUnits="userSpaceOnUse" id="paint3_radial" r="1"><stop stop-color="#1DA34C"/><stop offset="1" stop-color="#1EC85A"/></radialGradient></defs></svg>